# xmcd
#
# Track frame offsets:
#       150
#       15267
#       26367
#       36142
#       43625
#       53205
#       67012
#       76265
#       89380
#       100080
#
# Disc length: 1493 seconds
#
# Revision: 0
# Processed by: cddbd v1.4PL0 Copyright (c) Steve Scherf et al.
# Submitted via: WhereIsIt 3.26
#
DISCID=6e05d30a
DTITLE=Patsy Cline - The Live Broadcasts
DYEAR=1900
DGENRE=
TTITLE0=walking after midnight
TTITLE1=two cigarettes in an ashtray
TTITLE2=come on in (and make yourself at home)
TTITLE3=down by the riverside
TTITLE4=walking dream
TTITLE5=write me in care of the blues
TTITLE6=I don't wanna
TTITLE7=hungry for love
TTITLE8=try again
TTITLE9=your cheatin' heart
EXTD=
EXTT0=
EXTT1=
EXTT2=
EXTT3=
EXTT4=
EXTT5=
EXTT6=
EXTT7=
EXTT8=
EXTT9=
PLAYORDER=
